<svg width="90" height="20" viewBox="0 0 90 20" fill="none" xmlns="http://www.w3.org/2000/svg">
<path d="M82.154 19.3008C80.8563 19.3008 79.7491 19.083 78.8325 18.6474C77.916 18.2028 77.1945 17.6084 76.6681 16.8642C76.1418 16.1201 75.7969 15.2761 75.6336 14.3323C75.4793 13.3794 75.502 12.4038 75.7016 11.4056C75.992 10.0534 76.4866 8.89634 77.1854 7.93439C77.8933 6.97244 78.769 6.2419 79.8126 5.74277C80.8653 5.23457 82.0542 4.98047 83.3791 4.98047C84.6406 4.98047 85.725 5.19827 86.6325 5.63387C87.54 6.0604 88.266 6.64573 88.8105 7.38989C89.3641 8.13404 89.7226 8.97801 89.8859 9.92182C90.0584 10.8565 90.0357 11.8366 89.8179 12.8621C89.5365 14.1689 89.051 15.3078 88.3613 16.2789C87.6716 17.2408 86.805 17.985 85.7613 18.5113C84.7177 19.0377 83.5153 19.3008 82.154 19.3008ZM82.2765 15.9794C82.8936 15.9794 83.4336 15.8206 83.8964 15.503C84.3683 15.1853 84.7585 14.7633 85.0671 14.237C85.3756 13.7106 85.5934 13.1208 85.7205 12.4674C85.8838 11.7323 85.902 11.0471 85.7749 10.4119C85.657 9.77661 85.3938 9.26841 84.9854 8.88726C84.577 8.49704 84.028 8.30193 83.3383 8.30193C82.7212 8.30193 82.1721 8.45166 81.6912 8.75114C81.2102 9.05061 80.8064 9.46353 80.4797 9.98988C80.162 10.5162 79.9352 11.1197 79.799 11.8003C79.6447 12.5354 79.6311 13.2206 79.7582 13.8558C79.8852 14.4911 80.1575 15.0038 80.5749 15.394C80.9924 15.7843 81.5596 15.9794 82.2765 15.9794Z" fill="#0028FF"/>
<path d="M70.7777 19.0938C69.742 19.0938 68.8626 18.9122 68.1394 18.5491C67.4252 18.1768 66.9208 17.6139 66.6261 16.8603C66.3315 16.1067 66.3047 15.1534 66.5458 14.0003C66.6708 13.4102 66.7913 12.8336 66.9074 12.2707C67.0234 11.6987 67.144 11.1086 67.2689 10.5002C67.4029 9.88285 67.5412 9.2246 67.6841 8.52549C67.8269 7.81731 67.9877 7.0274 68.1662 6.15579C68.3894 5.12074 68.5858 4.18103 68.7555 3.33666C68.934 2.49228 69.117 1.62066 69.3045 0.721808L73.4025 0C73.2597 0.708189 73.1213 1.38006 72.9873 2.01561C72.8534 2.64209 72.715 3.29126 72.5722 3.96313C72.4383 4.62592 72.2865 5.35681 72.1169 6.15579L70.6839 13.1015C70.4964 13.9731 70.5187 14.6359 70.7509 15.0899C70.9919 15.5438 71.4383 15.7708 72.0901 15.7708C72.3758 15.7708 72.6883 15.7209 73.0275 15.621C73.3757 15.5211 73.7239 15.3486 74.0721 15.1035L73.6436 18.4401C73.4561 18.5672 73.1972 18.6762 72.8668 18.767C72.5454 18.8669 72.1972 18.944 71.8222 18.9985C71.4473 19.0621 71.0991 19.0938 70.7777 19.0938ZM65.5815 8.19864L66.1782 4.77346H76.322L75.6792 8.19864C74.8399 8.19864 73.9962 8.19864 73.1481 8.19864C72.3088 8.19864 71.4964 8.19864 70.7107 8.19864H68.9296H65.5815Z" fill="#0028FF"/>
<path d="M55.1224 18.8477C54.2612 18.8477 53.5406 18.6384 52.9605 18.2198C52.3804 17.792 51.977 17.2277 51.7504 16.527C51.5238 15.8262 51.5011 15.0617 51.6824 14.2335C51.8184 13.5965 52.0359 13.0641 52.335 12.6363C52.6432 12.2086 53.0103 11.8582 53.4364 11.5851C53.8715 11.3121 54.3474 11.0982 54.864 10.9435C55.3898 10.7797 55.9337 10.6568 56.4957 10.5749L60.7515 9.90602C60.8421 9.49647 60.8059 9.14154 60.6427 8.8412C60.4886 8.53177 60.2076 8.29515 59.7997 8.13133C59.3918 7.95841 58.8706 7.87195 58.2361 7.87195C57.9097 7.87195 57.5607 7.89925 57.1891 7.95386C56.8265 7.99936 56.4458 8.07217 56.047 8.17228C55.6481 8.26329 55.2357 8.38161 54.8096 8.52722C54.3927 8.66374 53.9621 8.82755 53.518 9.01867L54.157 5.44199C54.4833 5.33278 54.855 5.22812 55.2719 5.12801C55.6889 5.0188 56.1285 4.91869 56.5908 4.82768C57.0531 4.73667 57.5245 4.66386 58.0049 4.60925C58.4944 4.55465 58.9703 4.52734 59.4326 4.52734C60.7379 4.52734 61.812 4.74577 62.655 5.18261C63.498 5.61946 64.0827 6.24288 64.409 7.05286C64.7353 7.85375 64.7761 8.80935 64.5314 9.91967C64.4407 10.3747 64.3456 10.8389 64.2458 11.3121C64.1461 11.7763 64.0419 12.2632 63.9331 12.7728L63.6884 13.9195C63.5433 14.6021 63.3892 15.3211 63.2261 16.0765C63.0503 16.8905 62.9515 17.9058 62.8265 18.8477H59.3185L59.3782 16.7044H59.0655C58.7301 17.1868 58.3584 17.5872 57.9505 17.9058C57.5517 18.2152 57.1166 18.4473 56.6452 18.602C56.1739 18.7658 55.6663 18.8477 55.1224 18.8477ZM57.0123 15.6942C57.3387 15.6942 57.665 15.626 57.9913 15.4895C58.3267 15.3438 58.644 15.1391 58.9431 14.8751C59.2513 14.6112 59.5323 14.2972 59.7861 13.9332L60.2484 11.749C60.1215 11.84 59.9674 11.931 59.7861 12.022C59.6048 12.1039 59.3555 12.1904 59.0383 12.2814C58.721 12.3633 58.2904 12.4634 57.7466 12.5817C57.393 12.6636 57.0713 12.7592 56.7812 12.8684C56.4911 12.9776 56.2509 13.1323 56.0606 13.3325C55.8702 13.5328 55.7433 13.7921 55.6798 14.1107C55.5892 14.6112 55.6753 15.0026 55.9382 15.2847C56.2011 15.5577 56.5591 15.6942 57.0123 15.6942Z" fill="#0028FF"/>
<path d="M31.2848 19.2369C31.189 18.3371 31.0933 17.4373 30.9976 16.5374C30.9114 15.628 30.8253 14.7186 30.7391 13.8092L30.4663 11.2676C30.3706 10.1955 30.27 9.1425 30.1647 8.10865C30.0594 7.06522 29.9493 5.99787 29.8345 4.90658L34.2571 4.77734C34.2954 5.76333 34.3289 6.80197 34.3576 7.89326C34.3864 8.98455 34.4151 10.0375 34.4438 11.0523L34.5587 14.8H34.8746L36.5115 10.9948C36.9519 9.96097 37.3874 8.94626 37.8182 7.9507C38.2586 6.94556 38.6989 5.93086 39.1393 4.90658H43.1599C43.179 5.88299 43.2029 6.88334 43.2317 7.90762C43.2604 8.9319 43.2891 9.94182 43.3178 10.9374L43.404 14.8H43.7342L45.4143 10.9087C45.8355 9.92268 46.2758 8.8984 46.7353 7.83583C47.1948 6.76368 47.616 5.78727 47.9989 4.90658H52.8667C52.3019 5.97872 51.7467 7.04129 51.201 8.09429C50.6554 9.13771 50.1002 10.1955 49.5354 11.2676L48.2143 13.7661C47.7261 14.7042 47.2427 15.628 46.764 16.5374C46.2854 17.4468 45.8115 18.3467 45.3425 19.2369H40.4172C40.3885 18.3945 40.3502 17.5043 40.3024 16.5661C40.2545 15.628 40.2162 14.7282 40.1875 13.8666L40.0152 10.6502H39.6993L38.1916 13.9528C37.8086 14.8143 37.4066 15.695 36.9854 16.5949C36.5737 17.4947 36.1717 18.3754 35.7792 19.2369H31.2848Z" fill="#0028FF"/>
<path d="M22.3162 19.0977C20.6811 19.0977 19.314 18.7843 18.2149 18.1576C17.1248 17.5217 16.3527 16.6224 15.8986 15.4597C15.4535 14.297 15.3944 12.9163 15.7214 11.3176C15.9939 10.0004 16.4572 8.85136 17.1112 7.87033C17.7652 6.88929 18.5873 6.13081 19.5774 5.59487C20.5676 5.04985 21.6985 4.77734 22.9702 4.77734C24.3963 4.77734 25.559 5.03623 26.4583 5.554C27.3576 6.07176 27.9662 6.79846 28.2841 7.73407C28.6021 8.66969 28.6066 9.75973 28.2978 11.0042C28.2251 11.3039 28.1479 11.5855 28.0661 11.849C27.9935 12.1124 27.9117 12.3667 27.8209 12.612L24.578 11.3993C24.6234 11.2722 24.6643 11.145 24.7006 11.0178C24.737 10.8816 24.7688 10.7589 24.796 10.6499C24.9868 9.85056 24.9277 9.15112 24.6189 8.5516C24.31 7.95208 23.7877 7.65232 23.0519 7.65232C22.5887 7.65232 22.1345 7.77495 21.6894 8.02021C21.2534 8.26547 20.8628 8.64698 20.5176 9.16475C20.1724 9.68252 19.909 10.3502 19.7273 11.1677L19.5774 11.8353C19.4048 12.7165 19.4457 13.4477 19.7001 14.029C19.9635 14.6013 20.395 15.0328 20.9945 15.3235C21.594 15.6051 22.3298 15.7459 23.2018 15.7459C23.5833 15.7459 24.0057 15.7141 24.469 15.6505C24.9413 15.5778 25.4091 15.4733 25.8724 15.3371C26.3357 15.1917 26.7626 15.0101 27.1532 14.7921L26.6082 18.2529C26.3629 18.3983 26.0268 18.5345 25.5999 18.6617C25.173 18.7889 24.6779 18.8933 24.1147 18.9751C23.5606 19.0568 22.9611 19.0977 22.3162 19.0977ZM17.0158 12.612L17.3565 10.4319L25.8588 10.2548L28.1751 10.9224L27.8209 12.612H17.0158Z" fill="#0028FF"/>
<path d="M0 19.0958C0.181307 18.3008 0.351735 16.9404 0.511285 16.2082C0.670835 15.4759 0.859395 14.6321 1.07696 13.6767L2.19744 8.59274C2.41501 7.60245 2.60719 6.72724 2.774 5.96709C2.94805 5.19996 3.12573 4.40495 3.30704 3.58203C3.79294 3.58203 4.38037 3.58203 5.06934 3.58203C5.75831 3.58203 6.49079 3.58203 7.26678 3.58203C8.05003 3.58203 8.81877 3.58203 9.573 3.58203C10.8857 3.58203 11.9699 3.76684 12.8256 4.13645C13.6887 4.49909 14.287 5.05003 14.6206 5.78925C14.9614 6.52848 15.0086 7.46646 14.762 8.6032C14.5662 9.49585 14.2217 10.2316 13.7286 10.8104C13.2427 11.3893 12.5791 11.8181 11.7378 12.0971C10.9038 12.3761 9.86672 12.512 8.62658 12.5051L10.6935 11.0929L11.9663 14.116C12.1621 14.5833 12.3688 15.0819 12.5863 15.6119C12.8111 16.1419 13.0287 16.6615 13.239 17.1706C13.7239 17.9024 13.7239 18.4991 14.3206 19.0958H8.90942C8.70636 18.5379 8.4489 17.4077 8.26759 16.8986C8.08629 16.3895 7.90498 15.8874 7.72367 15.3922L6.30948 11.2812L8.58307 13.1223H4.77562L5.38481 10.3502H7.89773C8.2821 10.3502 8.61933 10.3048 8.90942 10.2142C9.20676 10.1165 9.45334 9.94915 9.64915 9.71204C9.84496 9.46796 9.99364 9.11927 10.0952 8.66597C10.1604 8.34517 10.1677 8.07319 10.1169 7.85003C10.0734 7.62686 9.98276 7.44206 9.84496 7.2956C9.71442 7.14915 9.54762 7.04106 9.34456 6.97132C9.14875 6.90158 8.93118 6.86671 8.69185 6.86671H3.76393L7.54962 4.27244C7.36831 5.08141 7.19063 5.87294 7.01658 6.64704C6.84977 7.42113 6.65759 8.29286 6.44002 9.26223L5.47184 13.6558C5.26153 14.6251 5.07297 15.4759 4.90616 16.2082C4.74661 16.9404 4.35089 18.3008 4.17683 19.0958H0Z" fill="#0028FF"/>
</svg>
