<svg width="104" height="25" viewBox="0 0 104 25" fill="none" xmlns="http://www.w3.org/2000/svg">
<path d="M94.7944 7.03906C96.2529 7.03906 97.536 7.29051 98.6274 7.81348C99.7049 8.3199 100.58 9.02207 101.24 9.92188C101.903 10.8135 102.333 11.8246 102.528 12.9473L102.593 13.3662C102.722 14.3485 102.673 15.366 102.45 16.415L102.449 16.416C102.123 17.9286 101.558 19.261 100.747 20.4033L100.746 20.4043C99.9316 21.5396 98.9049 22.4214 97.6704 23.0439C96.4285 23.6702 95.0113 23.9765 93.4312 23.9766C91.9327 23.9766 90.6231 23.7254 89.52 23.2012L89.5161 23.1992C88.4293 22.6719 87.5575 21.9585 86.9175 21.0537C86.2866 20.1617 85.875 19.1521 85.6812 18.0322V18.0273C85.4994 16.9047 85.526 15.7581 85.7593 14.5918L85.7612 14.585C86.0967 13.023 86.6718 11.6677 87.4966 10.5322L87.4985 10.5303C88.3334 9.39576 89.3718 8.52862 90.6099 7.93652C91.8573 7.3347 93.2555 7.03907 94.7944 7.03906ZM94.7495 11.7354C94.1475 11.7354 93.6291 11.8806 93.1802 12.1602C92.716 12.4492 92.3196 12.8512 91.9927 13.3779C91.6742 13.9071 91.4414 14.5218 91.3003 15.2275L91.2993 15.2314C91.1393 15.9937 91.1292 16.6874 91.2554 17.3184C91.3791 17.9372 91.6368 18.41 92.0151 18.7637C92.365 19.0907 92.8624 19.2802 93.5669 19.2803C94.1631 19.2803 94.6638 19.1286 95.0874 18.8379L95.0913 18.835C95.5497 18.5264 95.9335 18.1137 96.2417 17.5879C96.554 17.0552 96.7781 16.453 96.9097 15.7764L96.9116 15.7627H96.9126C97.0817 15.0017 97.0959 14.3101 96.9702 13.6816L96.9692 13.6748C96.8543 13.056 96.6051 12.5931 96.2407 12.2529L96.2368 12.249C95.8951 11.9225 95.4182 11.7354 94.7495 11.7354Z" fill="#0028FF" stroke="white"/>
<path d="M84.1826 2.09863C84.0234 2.88805 83.8691 3.6378 83.7197 4.34668V4.34766C83.5707 5.04466 83.4167 5.76711 83.2578 6.51465C83.238 6.61268 83.2168 6.71182 83.1963 6.8125H87.5439L87.4326 7.4043L86.7178 11.2168L86.6406 11.624H82.2002L81.1562 16.6816L81.1553 16.6865C80.955 17.6179 81.0073 18.2142 81.1855 18.5645C81.3433 18.8577 81.6363 19.0517 82.2314 19.0518C82.4918 19.0518 82.7917 19.006 83.1338 18.9053L83.1377 18.9043C83.4628 18.811 83.8 18.6464 84.1494 18.4004L85.0781 17.7471L84.9336 18.873L84.457 22.5859L84.4277 22.8096L84.2412 22.9365C83.974 23.1177 83.6337 23.2541 83.2441 23.3623L83.2451 23.3643C82.8596 23.484 82.4458 23.5747 82.0059 23.6387L82.0049 23.6377C81.5694 23.7109 81.158 23.75 80.7715 23.75C79.5621 23.75 78.5015 23.5384 77.6104 23.0908L77.6035 23.0869C76.7011 22.6165 76.0572 21.8968 75.6855 20.9463C75.3096 19.9848 75.2928 18.8167 75.5723 17.4795V17.4775C75.7112 16.8217 75.8447 16.1811 75.9736 15.5557C76.1028 14.919 76.2379 14.2619 76.377 13.585L76.3779 13.5801C76.5113 12.965 76.6475 12.3128 76.7891 11.624H74.3936L74.4961 11.0391L75.1602 7.22656L75.2314 6.8125H77.7852C77.8717 6.39573 77.9536 5.99669 78.0303 5.61523L78.0312 5.61035C78.2299 4.6711 78.434 3.70111 78.6426 2.70117L78.7109 2.37012L79.0449 2.31055L83.6055 1.50781L84.3271 1.38086L84.1826 2.09863Z" fill="#0028FF" stroke="white"/>
<path d="M68.1436 6.53516C69.6478 6.53516 70.9291 6.78618 71.96 7.32031C72.9936 7.85597 73.7325 8.63588 74.1445 9.65723H74.1455C74.5573 10.6679 74.594 11.8407 74.3066 13.1445C74.206 13.6495 74.1008 14.1646 73.9902 14.6895L73.9893 14.6914C73.8784 15.2077 73.7626 15.7495 73.6416 16.3164L73.3691 17.5928C73.2077 18.3528 73.0361 19.1533 72.8545 19.9941C72.6645 20.8736 72.5599 21.9617 72.417 23.0381L72.3584 23.4727H67.5029L67.5166 22.959L67.5537 21.6162C67.3171 21.8762 67.0671 22.1111 66.8018 22.3184L66.8008 22.3193C66.3148 22.6964 65.7819 22.9796 65.2051 23.1699L65.2061 23.1719C64.6242 23.3741 64.0028 23.4727 63.3467 23.4727C62.3054 23.4726 61.3953 23.2185 60.6484 22.6797L60.6436 22.6768C59.9118 22.1372 59.4018 21.421 59.1182 20.5439C58.8348 19.6677 58.8125 18.7254 59.0303 17.7305C59.1923 16.9729 59.456 16.3154 59.835 15.7734L59.8389 15.7676C60.2171 15.2427 60.6709 14.808 61.2002 14.4688L61.2041 14.4668H61.2051C61.7276 14.1389 62.2964 13.8825 62.9102 13.6982C63.521 13.5079 64.1522 13.3653 64.8027 13.2705L69.1641 12.585C69.1685 12.3795 69.126 12.2137 69.0508 12.0752L69.0469 12.0674L69.043 12.0586C68.9396 11.8513 68.7381 11.6591 68.3662 11.5098L68.3574 11.5068C67.9859 11.3493 67.4781 11.2579 66.8125 11.2578C66.477 11.2578 66.1127 11.286 65.7197 11.3438L65.709 11.3447C65.3278 11.3926 64.9237 11.4701 64.4971 11.5771L64.4873 11.5791C64.0621 11.6761 63.6194 11.803 63.1602 11.96L63.1543 11.9619C62.7058 12.1087 62.2407 12.2858 61.7588 12.4932L60.9053 12.8604L61.0693 11.9453L61.7803 7.96484L61.832 7.67285L62.1133 7.5791C62.4905 7.45285 62.9157 7.33306 63.3867 7.21973L64.1172 7.04102C64.3668 6.98417 64.623 6.93045 64.8848 6.87891C65.4127 6.77498 65.9505 6.69213 66.498 6.62988H66.499C67.061 6.56719 67.6094 6.53516 68.1436 6.53516ZM68.3467 15.9873C68.1949 16.0401 68.0265 16.0928 67.8428 16.1455L67.8301 16.1494C67.4691 16.2426 66.9842 16.3536 66.3789 16.4854L66.3799 16.4863C66.0046 16.5733 65.6681 16.6736 65.3691 16.7861C65.1082 16.8844 64.9068 17.0178 64.7529 17.1797C64.6171 17.3227 64.5134 17.5208 64.458 17.7988C64.3792 18.2436 64.4671 18.4973 64.6152 18.6602L64.6865 18.7275C64.862 18.8748 65.1029 18.9629 65.4502 18.9629C65.7393 18.9629 66.0343 18.9027 66.3389 18.7764C66.66 18.637 66.9713 18.439 67.2686 18.1768L67.2734 18.1719C67.56 17.9265 67.8248 17.6333 68.0703 17.293L68.3467 15.9873Z" fill="#0028FF" stroke="white"/>
<path d="M40.626 7.29688C40.6687 8.3965 40.7063 9.55509 40.7383 10.7715C40.7702 11.985 40.8021 13.1559 40.834 14.2842L40.916 16.9668L42.1758 14.0381C42.6659 12.8873 43.1513 11.7577 43.6309 10.6494L43.6318 10.6475C44.1214 9.52994 44.611 8.40155 45.1006 7.2627L45.2305 6.95996H50.5244L50.5342 7.4502C50.5555 8.5354 50.5823 9.64753 50.6143 10.7861L50.71 14.1572V14.1611L50.7725 16.9795L52.083 13.9434C52.5521 12.8453 53.043 11.7046 53.5547 10.5215C54.066 9.32835 54.5346 8.24133 54.9609 7.26074L55.0918 6.95996H61.666L61.2793 7.69336C60.6513 8.88553 60.0344 10.0675 59.4277 11.2383L59.4268 11.2393C58.8193 12.4009 58.201 13.5789 57.5723 14.7725V14.7734L56.1025 17.5498L56.1035 17.5508C55.5598 18.5955 55.0213 19.6249 54.4883 20.6377C53.9556 21.6498 53.4273 22.6508 52.9053 23.6416L52.7646 23.9092H46.499L46.4824 23.4258C46.4506 22.4914 46.4076 21.5034 46.3545 20.4619C46.3013 19.4189 46.2586 18.4179 46.2266 17.459L46.1064 15.2227L44.9609 17.7305C44.534 18.6911 44.0856 19.673 43.6162 20.6758L43.6172 20.6768C43.1592 21.6779 42.712 22.6577 42.2754 23.6162L42.1416 23.9092H36.3682L36.3213 23.4619C36.2148 22.4605 36.1075 21.4585 36.001 20.457V20.4521C35.9051 19.44 35.8088 18.4272 35.7129 17.415V17.4141L35.4102 14.5928L35.4092 14.584C35.356 13.9885 35.3019 13.3983 35.2461 12.8135L35.0742 11.0742C34.9571 9.91375 34.8348 8.72649 34.707 7.5127L34.6504 6.97656L35.1895 6.95996L40.1113 6.81641L40.6064 6.80176L40.626 7.29688Z" fill="#0028FF" stroke="white"/>
<path d="M27.5645 6.81641C29.2075 6.81644 30.5955 7.114 31.6953 7.74707C32.7956 8.38059 33.5562 9.28389 33.9512 10.4463C34.3435 11.6007 34.3377 12.9139 33.9785 14.3633C33.8969 14.6999 33.8094 15.0187 33.7168 15.3184L33.7178 15.3193C33.6373 15.6111 33.5455 15.8938 33.4453 16.168L33.3691 16.5361H33.3105L33.2568 16.6797L32.873 16.5361H24.1826C24.2058 16.8697 24.2729 17.1587 24.3809 17.4072C24.622 17.9291 25.0129 18.3252 25.5781 18.6006L25.8037 18.6973C26.349 18.9094 27.0177 19.0234 27.8223 19.0234C28.2176 19.0234 28.6616 18.9895 29.1562 18.9219C29.6596 18.8444 30.1589 18.7343 30.6533 18.5889C31.1355 18.437 31.5757 18.2486 31.9756 18.0254L32.873 17.5244L32.7139 18.54L32.1074 22.3916L32.0703 22.624L31.8682 22.7441C31.5461 22.935 31.1288 23.1006 30.6338 23.248C30.1302 23.3981 29.5545 23.5178 28.9102 23.6113C28.2662 23.7063 27.5743 23.7539 26.8359 23.7539C24.9543 23.7539 23.342 23.3929 22.0244 22.6416L22.0195 22.6396C20.7103 21.8758 19.7755 20.7869 19.2285 19.3867L19.2266 19.3838C18.6882 17.9773 18.6297 16.3391 19.0068 14.4951V14.4941C19.3213 12.9742 19.8598 11.6337 20.6279 10.4814C21.3988 9.32522 22.3729 8.42322 23.5498 7.78613C24.7338 7.1351 26.0768 6.81641 27.5645 6.81641ZM27.6553 11.0156C27.2332 11.0156 26.8104 11.1254 26.3828 11.3604L26.3838 11.3613C25.982 11.5874 25.6018 11.9503 25.251 12.4766C25.1397 12.6435 25.0361 12.8292 24.9395 13.0332L29.2148 12.9443C29.2241 12.4912 29.1339 12.0952 28.9541 11.7461C28.8209 11.4875 28.6534 11.3134 28.4561 11.2002C28.2563 11.0856 27.9965 11.0156 27.6553 11.0156Z" fill="#0028FF" stroke="white"/>
<path d="M12.6543 5.48047C14.1553 5.48049 15.4336 5.69101 16.4678 6.13672L16.6631 6.22266C17.6194 6.66806 18.3211 7.3337 18.7256 8.22754C19.1662 9.18315 19.2058 10.3477 18.918 11.6748L18.917 11.6758C18.6853 12.7318 18.2715 13.6281 17.6611 14.3457C17.0512 15.0723 16.2293 15.5962 15.2207 15.9307L15.2217 15.9316C15.1903 15.9421 15.1578 15.9498 15.126 15.96L15.7783 17.5098V17.5107C15.9961 18.0305 16.226 18.5849 16.4678 19.1738L17.1777 20.8691C17.4617 21.3086 17.6135 21.7182 17.749 22.0342C17.89 22.3628 18.0254 22.6269 18.291 22.8926L19.1445 23.7461H11.5654L11.4453 23.417C11.3234 23.082 11.1894 22.5889 11.0664 22.1338C10.9385 21.6604 10.823 21.2287 10.7305 20.9688C10.5292 20.4035 10.3272 19.8455 10.126 19.2959L10.123 19.2871L9.37012 17.0977H8.62305L8.57812 17.2998C8.34451 18.3765 8.13393 19.3224 7.94824 20.1377L7.94922 20.1387C7.85749 20.5597 7.69916 21.1551 7.54395 21.7412C7.38642 22.336 7.23073 22.9241 7.13672 23.3535L7.05078 23.7461H1.37305L1.5127 23.1348C1.6092 22.7115 1.70428 22.1294 1.7998 21.5342C1.89347 20.9505 1.98757 20.3503 2.08008 19.9258C2.25803 19.1091 2.46861 18.1687 2.71094 17.1045L3.95703 11.4492C4.19912 10.3473 4.41303 9.37317 4.59863 8.52734L4.59961 8.52441C4.79307 7.67178 4.99082 6.7879 5.19238 5.87305L5.27832 5.48047H12.6543ZM9.65527 12.4121L9.52246 13.0127H10.79C11.177 13.0127 11.4981 12.9671 11.7607 12.8857C12.0014 12.8065 12.1938 12.6747 12.3496 12.4873C12.5017 12.2968 12.6437 11.9908 12.7471 11.5293C12.8092 11.2193 12.8065 10.9962 12.7715 10.8418L12.7705 10.834L12.7686 10.8262C12.7358 10.6581 12.6733 10.5416 12.5928 10.4561L12.583 10.4463C12.5209 10.3766 12.4439 10.3162 12.3447 10.2686L12.2324 10.2236C12.0759 10.1679 11.8913 10.1358 11.6738 10.1357H10.1572C10.0055 10.8316 9.83957 11.591 9.65527 12.4121Z" fill="#0028FF" stroke="white"/>
</svg>
