<svg width="52" height="49" viewBox="0 0 52 49" fill="none" xmlns="http://www.w3.org/2000/svg">
<circle cx="27.5" cy="24.5" r="24.5" fill="#FFD12E"/>
<g filter="url(#filter0_i_3103_1302)">
<circle cx="27.4999" cy="24.4984" r="19.6" fill="#ECB800"/>
</g>
<g filter="url(#filter1_i_3103_1302)">
<path d="M27.5 0C41.031 0 52 10.969 52 24.5C52 38.031 41.031 49 27.5 49C13.969 49 3 38.031 3 24.5C3 10.969 13.969 0 27.5 0ZM27.5 4.90039C16.6755 4.9006 7.9006 13.6755 7.90039 24.5C7.9006 35.3245 16.6755 44.1004 27.5 44.1006C38.3245 44.1004 47.1004 35.3245 47.1006 24.5C47.1004 13.6755 38.3245 4.9006 27.5 4.90039Z" fill="#FFD12E"/>
</g>
<g filter="url(#filter2_di_3103_1302)">
<path d="M35.9932 13.3945V16.6612H30.7592C31.6632 17.7754 32.301 19.1143 32.5756 20.5812H35.9932V23.8479H32.5756C31.9361 27.2637 29.3275 29.9858 25.973 30.7911L32.5392 37.3573L30.2293 39.6672L19.6599 29.0978V27.7679H21.27L21.2568 27.7546C22.4076 27.7634 23.7767 27.7679 23.9066 27.7679C26.4052 27.7679 28.5183 26.1178 29.2158 23.8479H19.6599V20.5812H29.2158C28.5183 18.3113 26.4052 16.6612 23.9066 16.6612C23.4806 16.6612 23.2532 16.6612 23.2532 16.6612H19.6599V13.3945H35.9932Z" fill="#FFD12E"/>
</g>
<path d="M5 7L5.53033 11.9166L10 12.5L5.53033 13.0834L5 18L4.46967 13.0834L0 12.5L4.46967 11.9166L5 7Z" fill="#FFF9C4"/>
<path d="M48.2307 25.418L48.6304 29.0679L51.9999 29.501L48.6304 29.934L48.2307 33.584L47.8309 29.934L44.4614 29.501L47.8309 29.0679L48.2307 25.418Z" fill="#FFF9C4"/>
<defs>
<filter id="filter0_i_3103_1302" x="7.8999" y="4.89844" width="39.2" height="39.1992" filterUnits="userSpaceOnUse" color-interpolation-filters="sRGB">
<feFlood flood-opacity="0" result="BackgroundImageFix"/>
<feBlend mode="normal" in="SourceGraphic" in2="BackgroundImageFix" result="shape"/>
<feColorMatrix in="SourceAlpha" type="matrix" values="0 0 0 0 0 0 0 0 0 0 0 0 0 0 0 0 0 0 127 0" result="hardAlpha"/>
<feOffset dx="4" dy="4"/>
<feComposite in2="hardAlpha" operator="arithmetic" k2="-1" k3="1"/>
<feColorMatrix type="matrix" values="0 0 0 0 0 0 0 0 0 0 0 0 0 0 0 0 0 0 0.25 0"/>
<feBlend mode="normal" in2="shape" result="effect1_innerShadow_3103_1302"/>
</filter>
<filter id="filter1_i_3103_1302" x="3" y="0" width="49" height="49" filterUnits="userSpaceOnUse" color-interpolation-filters="sRGB">
<feFlood flood-opacity="0" result="BackgroundImageFix"/>
<feBlend mode="normal" in="SourceGraphic" in2="BackgroundImageFix" result="shape"/>
<feColorMatrix in="SourceAlpha" type="matrix" values="0 0 0 0 0 0 0 0 0 0 0 0 0 0 0 0 0 0 127 0" result="hardAlpha"/>
<feOffset dx="2" dy="2"/>
<feComposite in2="hardAlpha" operator="arithmetic" k2="-1" k3="1"/>
<feColorMatrix type="matrix" values="0 0 0 0 1 0 0 0 0 0.931667 0 0 0 0 0.316667 0 0 0 1 0"/>
<feBlend mode="normal" in2="shape" result="effect1_innerShadow_3103_1302"/>
</filter>
<filter id="filter2_di_3103_1302" x="19.6599" y="13.3945" width="18.3333" height="26.2734" filterUnits="userSpaceOnUse" color-interpolation-filters="sRGB">
<feFlood flood-opacity="0" result="BackgroundImageFix"/>
<feColorMatrix in="SourceAlpha" type="matrix" values="0 0 0 0 0 0 0 0 0 0 0 0 0 0 0 0 0 0 127 0" result="hardAlpha"/>
<feOffset dx="2"/>
<feComposite in2="hardAlpha" operator="out"/>
<feColorMatrix type="matrix" values="0 0 0 0 0 0 0 0 0 0 0 0 0 0 0 0 0 0 0.25 0"/>
<feBlend mode="normal" in2="BackgroundImageFix" result="effect1_dropShadow_3103_1302"/>
<feBlend mode="normal" in="SourceGraphic" in2="effect1_dropShadow_3103_1302" result="shape"/>
<feColorMatrix in="SourceAlpha" type="matrix" values="0 0 0 0 0 0 0 0 0 0 0 0 0 0 0 0 0 0 127 0" result="hardAlpha"/>
<feOffset dx="2" dy="2"/>
<feComposite in2="hardAlpha" operator="arithmetic" k2="-1" k3="1"/>
<feColorMatrix type="matrix" values="0 0 0 0 1 0 0 0 0 0.935417 0 0 0 0 0.354167 0 0 0 1 0"/>
<feBlend mode="normal" in2="shape" result="effect2_innerShadow_3103_1302"/>
</filter>
</defs>
</svg>
