<svg width="21" height="21" viewBox="0 0 21 21" fill="none" xmlns="http://www.w3.org/2000/svg">
<circle cx="10.066" cy="10.066" r="7.25072" transform="rotate(55.9897 10.066 10.066)" fill="#FFD12E"/>
<g filter="url(#filter0_i_3103_1284)">
<circle cx="10.0661" cy="10.0645" r="5.80058" transform="rotate(55.9897 10.0661 10.0645)" fill="#ECB800"/>
</g>
<g filter="url(#filter1_i_3103_1284)">
<path d="M16.0765 6.0106C18.3162 9.33003 17.4405 13.8364 14.1211 16.0762C10.8018 18.3158 6.29599 17.4408 4.05613 14.1216C1.81631 10.8022 2.69087 6.29569 6.01015 4.05577C9.3296 1.81591 13.8367 2.69115 16.0765 6.0106ZM14.8744 6.82176C13.0825 4.1662 9.47686 3.466 6.8213 5.25789C4.16591 7.04983 3.46559 10.6555 5.25744 13.311C7.04933 15.9663 10.6551 16.6665 13.3105 14.8749C15.966 13.083 16.6661 9.4773 14.8744 6.82176Z" fill="#FFD12E"/>
</g>
<g filter="url(#filter2_di_3103_1284)">
<path d="M12.0491 6.60245L12.0466 7.56921L10.4976 7.56517C10.7643 7.8956 10.952 8.29235 11.0322 8.72668L12.0436 8.72932L12.0411 9.69608L11.0296 9.69344C10.8377 10.7038 10.0636 11.5074 9.07026 11.7432L11.0084 13.6915L10.323 14.3733L7.20322 11.2372L7.20424 10.8436L7.68075 10.8448L7.67685 10.8409C8.01743 10.8444 8.4226 10.8468 8.46103 10.8469C9.20048 10.8488 9.82714 10.3621 10.0353 9.69085L7.20727 9.68348L7.20979 8.71672L10.0378 8.72409C9.83317 8.05178 9.20905 7.56181 8.4696 7.55988C8.34352 7.55955 8.27625 7.55938 8.27625 7.55938L7.21281 7.5566L7.21533 6.58984L12.0491 6.60245Z" fill="#FFD12E"/>
</g>
<path d="M17 6L17.3182 9.12877L20 9.5L17.3182 9.87123L17 13L16.6818 9.87123L14 9.5L16.6818 9.12877L17 6Z" fill="#FFF9C4"/>
<defs>
<filter id="filter0_i_3103_1284" x="4.26489" y="4.26172" width="11.6023" height="11.6055" filterUnits="userSpaceOnUse" color-interpolation-filters="sRGB">
<feFlood flood-opacity="0" result="BackgroundImageFix"/>
<feBlend mode="normal" in="SourceGraphic" in2="BackgroundImageFix" result="shape"/>
<feColorMatrix in="SourceAlpha" type="matrix" values="0 0 0 0 0 0 0 0 0 0 0 0 0 0 0 0 0 0 127 0" result="hardAlpha"/>
<feOffset dx="4" dy="4"/>
<feComposite in2="hardAlpha" operator="arithmetic" k2="-1" k3="1"/>
<feColorMatrix type="matrix" values="0 0 0 0 0 0 0 0 0 0 0 0 0 0 0 0 0 0 0.25 0"/>
<feBlend mode="normal" in2="shape" result="effect1_innerShadow_3103_1284"/>
</filter>
<filter id="filter1_i_3103_1284" x="2.81494" y="2.81641" width="14.5024" height="14.5" filterUnits="userSpaceOnUse" color-interpolation-filters="sRGB">
<feFlood flood-opacity="0" result="BackgroundImageFix"/>
<feBlend mode="normal" in="SourceGraphic" in2="BackgroundImageFix" result="shape"/>
<feColorMatrix in="SourceAlpha" type="matrix" values="0 0 0 0 0 0 0 0 0 0 0 0 0 0 0 0 0 0 127 0" result="hardAlpha"/>
<feOffset dx="2" dy="2"/>
<feComposite in2="hardAlpha" operator="arithmetic" k2="-1" k3="1"/>
<feColorMatrix type="matrix" values="0 0 0 0 1 0 0 0 0 0.931667 0 0 0 0 0.316667 0 0 0 1 0"/>
<feBlend mode="normal" in2="shape" result="effect1_innerShadow_3103_1284"/>
</filter>
<filter id="filter2_di_3103_1284" x="7.20312" y="6.58984" width="6.84595" height="7.78516" filterUnits="userSpaceOnUse" color-interpolation-filters="sRGB">
<feFlood flood-opacity="0" result="BackgroundImageFix"/>
<feColorMatrix in="SourceAlpha" type="matrix" values="0 0 0 0 0 0 0 0 0 0 0 0 0 0 0 0 0 0 127 0" result="hardAlpha"/>
<feOffset dx="2"/>
<feComposite in2="hardAlpha" operator="out"/>
<feColorMatrix type="matrix" values="0 0 0 0 0 0 0 0 0 0 0 0 0 0 0 0 0 0 0.25 0"/>
<feBlend mode="normal" in2="BackgroundImageFix" result="effect1_dropShadow_3103_1284"/>
<feBlend mode="normal" in="SourceGraphic" in2="effect1_dropShadow_3103_1284" result="shape"/>
<feColorMatrix in="SourceAlpha" type="matrix" values="0 0 0 0 0 0 0 0 0 0 0 0 0 0 0 0 0 0 127 0" result="hardAlpha"/>
<feOffset dx="2" dy="2"/>
<feComposite in2="hardAlpha" operator="arithmetic" k2="-1" k3="1"/>
<feColorMatrix type="matrix" values="0 0 0 0 1 0 0 0 0 0.935417 0 0 0 0 0.354167 0 0 0 1 0"/>
<feBlend mode="normal" in2="shape" result="effect2_innerShadow_3103_1284"/>
</filter>
</defs>
</svg>
