<svg width="22" height="22" viewBox="0 0 22 22" fill="none" xmlns="http://www.w3.org/2000/svg">
<circle cx="10.8884" cy="10.8895" r="7.77339" transform="rotate(-37.0815 10.8884 10.8895)" fill="#FFD12E"/>
<g filter="url(#filter0_i_3103_1274)">
<circle cx="10.8885" cy="10.8913" r="6.21871" transform="rotate(-37.0815 10.8885 10.8913)" fill="#ECB800"/>
</g>
<g filter="url(#filter1_i_3103_1274)">
<path d="M6.20148 4.688C9.62644 2.09949 14.5014 2.77753 17.09 6.20248C19.6785 9.62743 19.0004 14.5024 15.5755 17.091C12.1505 19.6795 7.27555 19.0014 4.687 15.5765C2.09846 12.1515 2.77652 7.27654 6.20148 4.688ZM7.13888 5.9283C4.39891 7.99913 3.85646 11.8991 5.9273 14.6391C7.99814 17.379 11.8981 17.9215 14.6381 15.8507C17.378 13.7798 17.9205 9.87984 15.8497 7.13988C13.7788 4.39992 9.87885 3.85749 7.13888 5.9283Z" fill="#FFD12E"/>
</g>
<g filter="url(#filter2_di_3103_1274)">
<path d="M14.1376 7.29439L14.0904 8.32977L12.4315 8.25421C12.7019 8.6204 12.8847 9.05399 12.9506 9.52289L14.0338 9.57223L13.9867 10.6076L12.9035 10.5583C12.6514 11.6317 11.7853 12.4568 10.7105 12.6636L12.6969 14.8396L11.9314 15.5384L8.73399 12.0358L8.75319 11.6143L9.26352 11.6375L9.25952 11.6331C9.62415 11.6525 10.058 11.6737 10.0992 11.6756C10.8911 11.7116 11.5847 11.2191 11.8386 10.5098L8.80978 10.3718L8.85694 9.33643L11.8857 9.47438C11.6974 8.74486 11.0515 8.19135 10.2595 8.15528C10.1245 8.14913 10.0524 8.14585 10.0524 8.14585L8.91353 8.09397L8.96069 7.05859L14.1376 7.29439Z" fill="#FFD12E"/>
</g>
<path d="M4 6L4.3182 9.12877L7 9.5L4.3182 9.87123L4 13L3.6818 9.87123L1 9.5L3.6818 9.12877L4 6Z" fill="#FFF9C4"/>
<defs>
<filter id="filter0_i_3103_1274" x="4.66943" y="4.67188" width="12.438" height="12.4375" filterUnits="userSpaceOnUse" color-interpolation-filters="sRGB">
<feFlood flood-opacity="0" result="BackgroundImageFix"/>
<feBlend mode="normal" in="SourceGraphic" in2="BackgroundImageFix" result="shape"/>
<feColorMatrix in="SourceAlpha" type="matrix" values="0 0 0 0 0 0 0 0 0 0 0 0 0 0 0 0 0 0 127 0" result="hardAlpha"/>
<feOffset dx="4" dy="4"/>
<feComposite in2="hardAlpha" operator="arithmetic" k2="-1" k3="1"/>
<feColorMatrix type="matrix" values="0 0 0 0 0 0 0 0 0 0 0 0 0 0 0 0 0 0 0.25 0"/>
<feBlend mode="normal" in2="shape" result="effect1_innerShadow_3103_1274"/>
</filter>
<filter id="filter1_i_3103_1274" x="3.1145" y="3.11719" width="15.5479" height="15.5469" filterUnits="userSpaceOnUse" color-interpolation-filters="sRGB">
<feFlood flood-opacity="0" result="BackgroundImageFix"/>
<feBlend mode="normal" in="SourceGraphic" in2="BackgroundImageFix" result="shape"/>
<feColorMatrix in="SourceAlpha" type="matrix" values="0 0 0 0 0 0 0 0 0 0 0 0 0 0 0 0 0 0 127 0" result="hardAlpha"/>
<feOffset dx="2" dy="2"/>
<feComposite in2="hardAlpha" operator="arithmetic" k2="-1" k3="1"/>
<feColorMatrix type="matrix" values="0 0 0 0 1 0 0 0 0 0.931667 0 0 0 0 0.316667 0 0 0 1 0"/>
<feBlend mode="normal" in2="shape" result="effect1_innerShadow_3103_1274"/>
</filter>
<filter id="filter2_di_3103_1274" x="8.73389" y="7.05859" width="7.40381" height="8.48047" filterUnits="userSpaceOnUse" color-interpolation-filters="sRGB">
<feFlood flood-opacity="0" result="BackgroundImageFix"/>
<feColorMatrix in="SourceAlpha" type="matrix" values="0 0 0 0 0 0 0 0 0 0 0 0 0 0 0 0 0 0 127 0" result="hardAlpha"/>
<feOffset dx="2"/>
<feComposite in2="hardAlpha" operator="out"/>
<feColorMatrix type="matrix" values="0 0 0 0 0 0 0 0 0 0 0 0 0 0 0 0 0 0 0.25 0"/>
<feBlend mode="normal" in2="BackgroundImageFix" result="effect1_dropShadow_3103_1274"/>
<feBlend mode="normal" in="SourceGraphic" in2="effect1_dropShadow_3103_1274" result="shape"/>
<feColorMatrix in="SourceAlpha" type="matrix" values="0 0 0 0 0 0 0 0 0 0 0 0 0 0 0 0 0 0 127 0" result="hardAlpha"/>
<feOffset dx="2" dy="2"/>
<feComposite in2="hardAlpha" operator="arithmetic" k2="-1" k3="1"/>
<feColorMatrix type="matrix" values="0 0 0 0 1 0 0 0 0 0.935417 0 0 0 0 0.354167 0 0 0 1 0"/>
<feBlend mode="normal" in2="shape" result="effect2_innerShadow_3103_1274"/>
</filter>
</defs>
</svg>
