<svg width="280" height="320" viewBox="0 0 280 320" fill="none" xmlns="http://www.w3.org/2000/svg">
<path d="M343.804 160.018C343.804 151.206 343.233 142.402 342.093 133.663L140.009 160.018H343.804Z" fill="url(#paint0_linear_3102_203)" fill-opacity="0.34"/>
<path d="M336.088 215.559C338.49 207.08 340.34 198.454 341.625 189.735L140.01 160.008L336.088 215.559Z" fill="url(#paint1_linear_3102_203)" fill-opacity="0.34"/>
<path d="M314.239 265.739C318.81 258.205 322.889 250.382 326.448 242.319L140.009 160.02L314.239 265.739Z" fill="url(#paint2_linear_3102_203)" fill-opacity="0.34"/>
<path d="M275.886 311.903C282.454 306.027 288.634 299.732 294.387 293.056L140.008 160.016L275.886 311.903Z" fill="url(#paint3_linear_3102_203)" fill-opacity="0.34"/>
<path d="M233.934 340.878C241.755 336.816 249.305 332.252 256.535 327.213L140.01 160.017L233.934 340.878Z" fill="url(#paint4_linear_3102_203)" fill-opacity="0.34"/>
<path d="M185.941 358.568C194.527 356.582 202.975 354.041 211.233 350.961L140.008 160.016L185.941 358.568Z" fill="url(#paint5_linear_3102_203)" fill-opacity="0.34"/>
<path d="M129.532 363.532C138.334 363.985 147.155 363.866 155.941 363.177L140.01 160.005L129.532 363.532Z" fill="url(#paint6_linear_3102_203)" fill-opacity="0.34"/>
<path d="M69.2768 351.145C77.5418 354.204 85.9965 356.723 94.5876 358.687L140.008 160.017L69.2768 351.145Z" fill="url(#paint7_linear_3102_203)" fill-opacity="0.34"/>
<path d="M14.938 320.919C21.896 326.327 29.1976 331.279 36.7966 335.742L140.008 160.014L14.938 320.919Z" fill="url(#paint8_linear_3102_203)" fill-opacity="0.34"/>
<path d="M-24.2603 280.616C-19.0445 287.719 -13.3734 294.477 -7.28273 300.847L140.01 160.001L-24.2603 280.616Z" fill="url(#paint9_linear_3102_203)" fill-opacity="0.34"/>
<path d="M-51.4745 229.777C-48.4577 238.058 -44.907 246.134 -40.8447 253.954L140.009 160.014L-51.4745 229.777Z" fill="url(#paint10_linear_3102_203)" fill-opacity="0.34"/>
<path d="M-63.5988 168.766C-63.2202 177.57 -62.2708 186.341 -60.7566 195.023L140.009 160.009L-63.5988 168.766Z" fill="url(#paint11_linear_3102_203)" fill-opacity="0.34"/>
<path d="M-59.4976 118.414C-61.2963 127.042 -62.5334 135.776 -63.2013 144.564L140.008 160.009L-59.4976 118.414Z" fill="url(#paint12_linear_3102_203)" fill-opacity="0.34"/>
<path d="M-41.8533 68.0359C-45.8306 75.9002 -49.2935 84.0143 -52.2203 92.3269L140.008 160.009L-41.8533 68.0359Z" fill="url(#paint13_linear_3102_203)" fill-opacity="0.34"/>
<path d="M-9.36783 21.3812C-15.3627 27.8408 -20.9323 34.6825 -26.0415 41.8631L140.01 160.013L-9.36783 21.3812Z" fill="url(#paint14_linear_3102_203)" fill-opacity="0.34"/>
<path d="M45.419 -20.5014C37.613 -16.411 30.0805 -11.8185 22.869 -6.75296L140.01 160.012L45.419 -20.5014Z" fill="url(#paint15_linear_3102_203)" fill-opacity="0.34"/>
<path d="M106.403 -40.9928C97.7108 -39.5395 89.1221 -37.524 80.6908 -34.9589L140.009 160.013L106.403 -40.9928Z" fill="url(#paint16_linear_3102_203)" fill-opacity="0.34"/>
<path d="M166.081 -42.1218C157.341 -43.2493 148.537 -43.8086 139.724 -43.7963L140.008 159.999L166.081 -42.1218Z" fill="url(#paint17_linear_3102_203)" fill-opacity="0.34"/>
<path d="M217.708 -28.3818C209.561 -31.7418 201.204 -34.5698 192.691 -36.848L140.008 160.02L217.708 -28.3818Z" fill="url(#paint18_linear_3102_203)" fill-opacity="0.34"/>
<path d="M270.965 3.86378C264.213 -1.79918 257.1 -7.01818 249.672 -11.7604L140.009 160.015L270.965 3.86378Z" fill="url(#paint19_linear_3102_203)" fill-opacity="0.34"/>
<path d="M309.885 47.4403C305.017 40.0942 299.677 33.0717 293.9 26.4169L140.009 160.022L309.885 47.4403Z" fill="url(#paint20_linear_3102_203)" fill-opacity="0.34"/>
<path d="M333.753 96.7976C331.02 88.4193 327.746 80.2273 323.952 72.2729L140.008 160.006L333.753 96.7976Z" fill="url(#paint21_linear_3102_203)" fill-opacity="0.34"/>
<defs>
<linearGradient id="paint0_linear_3102_203" x1="138.94" y1="93.4968" x2="139.648" y2="177.701" gradientUnits="userSpaceOnUse">
<stop stop-color="#FFEC85"/>
<stop offset="1" stop-color="#FFF6C8"/>
</linearGradient>
<linearGradient id="paint1_linear_3102_203" x1="157.114" y1="95.7143" x2="134.842" y2="176.923" gradientUnits="userSpaceOnUse">
<stop stop-color="#FFEC85"/>
<stop offset="1" stop-color="#FFF6C8"/>
</linearGradient>
<linearGradient id="paint2_linear_3102_203" x1="173.603" y1="102.594" x2="130.527" y2="174.95" gradientUnits="userSpaceOnUse">
<stop stop-color="#FFEC85"/>
<stop offset="1" stop-color="#FFF6C8"/>
</linearGradient>
<linearGradient id="paint3_linear_3102_203" x1="188.873" y1="114.867" x2="126.588" y2="171.536" gradientUnits="userSpaceOnUse">
<stop stop-color="#FFEC85"/>
<stop offset="1" stop-color="#FFF6C8"/>
</linearGradient>
<linearGradient id="paint4_linear_3102_203" x1="198.553" y1="128.41" x2="124.15" y2="167.846" gradientUnits="userSpaceOnUse">
<stop stop-color="#FFEC85"/>
<stop offset="1" stop-color="#FFF6C8"/>
</linearGradient>
<linearGradient id="paint5_linear_3102_203" x1="204.577" y1="143.982" x2="122.699" y2="163.65" gradientUnits="userSpaceOnUse">
<stop stop-color="#FFEC85"/>
<stop offset="1" stop-color="#FFF6C8"/>
</linearGradient>
<linearGradient id="paint6_linear_3102_203" x1="206.499" y1="162.358" x2="122.37" y2="158.736" gradientUnits="userSpaceOnUse">
<stop stop-color="#FFEC85"/>
<stop offset="1" stop-color="#FFF6C8"/>
</linearGradient>
<linearGradient id="paint7_linear_3102_203" x1="202.766" y1="182.103" x2="123.55" y2="153.542" gradientUnits="userSpaceOnUse">
<stop stop-color="#FFEC85"/>
<stop offset="1" stop-color="#FFF6C8"/>
</linearGradient>
<linearGradient id="paint8_linear_3102_203" x1="193.185" y1="199.995" x2="126.268" y2="148.877" gradientUnits="userSpaceOnUse">
<stop stop-color="#FFEC85"/>
<stop offset="1" stop-color="#FFF6C8"/>
</linearGradient>
<linearGradient id="paint9_linear_3102_203" x1="180.242" y1="212.988" x2="129.836" y2="145.534" gradientUnits="userSpaceOnUse">
<stop stop-color="#FFEC85"/>
<stop offset="1" stop-color="#FFF6C8"/>
</linearGradient>
<linearGradient id="paint10_linear_3102_203" x1="163.784" y1="222.151" x2="134.295" y2="143.276" gradientUnits="userSpaceOnUse">
<stop stop-color="#FFEC85"/>
<stop offset="1" stop-color="#FFF6C8"/>
</linearGradient>
<linearGradient id="paint11_linear_3102_203" x1="143.935" y1="226.423" x2="139.61" y2="142.327" gradientUnits="userSpaceOnUse">
<stop stop-color="#FFEC85"/>
<stop offset="1" stop-color="#FFF6C8"/>
</linearGradient>
<linearGradient id="paint12_linear_3102_203" x1="127.477" y1="225.348" x2="143.971" y2="142.772" gradientUnits="userSpaceOnUse">
<stop stop-color="#FFEC85"/>
<stop offset="1" stop-color="#FFF6C8"/>
</linearGradient>
<linearGradient id="paint13_linear_3102_203" x1="110.941" y1="219.853" x2="148.311" y2="144.392" gradientUnits="userSpaceOnUse">
<stop stop-color="#FFEC85"/>
<stop offset="1" stop-color="#FFF6C8"/>
</linearGradient>
<linearGradient id="paint14_linear_3102_203" x1="95.5424" y1="209.499" x2="152.304" y2="147.298" gradientUnits="userSpaceOnUse">
<stop stop-color="#FFEC85"/>
<stop offset="1" stop-color="#FFF6C8"/>
</linearGradient>
<linearGradient id="paint15_linear_3102_203" x1="81.5838" y1="191.835" x2="155.84" y2="152.125" gradientUnits="userSpaceOnUse">
<stop stop-color="#FFEC85"/>
<stop offset="1" stop-color="#FFF6C8"/>
</linearGradient>
<linearGradient id="paint16_linear_3102_203" x1="74.5747" y1="172.036" x2="157.509" y2="157.453" gradientUnits="userSpaceOnUse">
<stop stop-color="#FFEC85"/>
<stop offset="1" stop-color="#FFF6C8"/>
</linearGradient>
<linearGradient id="paint17_linear_3102_203" x1="73.8966" y1="152.548" x2="157.499" y2="162.62" gradientUnits="userSpaceOnUse">
<stop stop-color="#FFEC85"/>
<stop offset="1" stop-color="#FFF6C8"/>
</linearGradient>
<linearGradient id="paint18_linear_3102_203" x1="78.1037" y1="135.646" x2="156.217" y2="167.096" gradientUnits="userSpaceOnUse">
<stop stop-color="#FFEC85"/>
<stop offset="1" stop-color="#FFF6C8"/>
</linearGradient>
<linearGradient id="paint19_linear_3102_203" x1="88.3528" y1="118.088" x2="153.326" y2="171.655" gradientUnits="userSpaceOnUse">
<stop stop-color="#FFEC85"/>
<stop offset="1" stop-color="#FFF6C8"/>
</linearGradient>
<linearGradient id="paint20_linear_3102_203" x1="102.37" y1="105.162" x2="149.476" y2="174.961" gradientUnits="userSpaceOnUse">
<stop stop-color="#FFEC85"/>
<stop offset="1" stop-color="#FFF6C8"/>
</linearGradient>
<linearGradient id="paint21_linear_3102_203" x1="118.36" y1="97.0964" x2="145.149" y2="176.929" gradientUnits="userSpaceOnUse">
<stop stop-color="#FFEC85"/>
<stop offset="1" stop-color="#FFF6C8"/>
</linearGradient>
</defs>
</svg>
